<svg width="81" height="34" viewBox="0 0 81 34" fill="none" xmlns="http://www.w3.org/2000/svg">
<path d="M6.00195 3.29541H2.06152V6.0127H5.86279V7.6167H2.06152V13H0.35498V1.69141H6.00195V3.29541ZM13.8828 10.2534H9.0415L7.78174 13H5.94336L11.5391 0.980957L16.937 13H15.0693L13.8828 10.2534ZM13.187 8.64941L11.5098 4.8042L9.75195 8.64941H13.187ZM18.3579 13V0.922363L26.605 9.55029V1.69141H28.3115V13.6885L20.0645 5.08252V13H18.3579ZM34.1489 3.29541V13H32.4424V3.29541H29.8423V1.69141H36.7417V3.29541H34.1489ZM44.293 10.2534H39.4517L38.1919 13H36.3535L41.9492 0.980957L47.3472 13H45.4795L44.293 10.2534ZM43.5972 8.64941L41.9199 4.8042L40.1621 8.64941H43.5972ZM50.7236 11.396H56.1509V13H47.9185L53.4702 3.29541H48.8267V1.69141H56.2754L50.7236 11.396ZM60.0986 11.396H65.5259V13H57.2935L62.8452 3.29541H58.2017V1.69141H65.6504L60.0986 11.396ZM69.2246 1.69141V13H67.5181V1.69141H69.2246ZM78.1821 3.29541H73.6484V6.0127H78.0503V7.6167H73.6484V11.396H78.1821V13H71.9419V1.69141H78.1821V3.29541ZM6.665 24.18H3.125V26.07H6.35V28.56H3.125V33H0.185V21.69H6.665V24.18ZM10.9678 27.345C10.9678 27.795 11.0528 28.21 11.2228 28.59C11.3928 28.97 11.6228 29.3 11.9128 29.58C12.2028 29.86 12.5378 30.08 12.9178 30.24C13.3078 30.39 13.7178 30.465 14.1478 30.465C14.5778 30.465 14.9828 30.39 15.3628 30.24C15.7528 30.08 16.0928 29.86 16.3828 29.58C16.6828 29.3 16.9178 28.97 17.0878 28.59C17.2578 28.21 17.3428 27.795 17.3428 27.345C17.3428 26.895 17.2578 26.48 17.0878 26.1C16.9178 25.72 16.6828 25.39 16.3828 25.11C16.0928 24.83 15.7528 24.615 15.3628 24.465C14.9828 24.305 14.5778 24.225 14.1478 24.225C13.7178 24.225 13.3078 24.305 12.9178 24.465C12.5378 24.615 12.2028 24.83 11.9128 25.11C11.6228 25.39 11.3928 25.72 11.2228 26.1C11.0528 26.48 10.9678 26.895 10.9678 27.345ZM7.89277 27.345C7.89277 26.505 8.04777 25.725 8.35777 25.005C8.66777 24.275 9.09777 23.64 9.64777 23.1C10.1978 22.56 10.8528 22.14 11.6128 21.84C12.3828 21.53 13.2278 21.375 14.1478 21.375C15.0578 21.375 15.8978 21.53 16.6678 21.84C17.4378 22.14 18.0978 22.56 18.6478 23.1C19.2078 23.64 19.6428 24.275 19.9528 25.005C20.2628 25.725 20.4178 26.505 20.4178 27.345C20.4178 28.185 20.2628 28.97 19.9528 29.7C19.6428 30.42 19.2078 31.05 18.6478 31.59C18.0978 32.13 17.4378 32.555 16.6678 32.865C15.8978 33.165 15.0578 33.315 14.1478 33.315C13.2278 33.315 12.3828 33.165 11.6128 32.865C10.8528 32.555 10.1978 32.13 9.64777 31.59C9.09777 31.05 8.66777 30.42 8.35777 29.7C8.04777 28.97 7.89277 28.185 7.89277 27.345ZM24.8398 27.345C24.8398 27.795 24.9248 28.21 25.0948 28.59C25.2648 28.97 25.4948 29.3 25.7848 29.58C26.0748 29.86 26.4098 30.08 26.7898 30.24C27.1798 30.39 27.5898 30.465 28.0198 30.465C28.4498 30.465 28.8548 30.39 29.2348 30.24C29.6248 30.08 29.9648 29.86 30.2548 29.58C30.5548 29.3 30.7898 28.97 30.9598 28.59C31.1298 28.21 31.2148 27.795 31.2148 27.345C31.2148 26.895 31.1298 26.48 30.9598 26.1C30.7898 25.72 30.5548 25.39 30.2548 25.11C29.9648 24.83 29.6248 24.615 29.2348 24.465C28.8548 24.305 28.4498 24.225 28.0198 24.225C27.5898 24.225 27.1798 24.305 26.7898 24.465C26.4098 24.615 26.0748 24.83 25.7848 25.11C25.4948 25.39 25.2648 25.72 25.0948 26.1C24.9248 26.48 24.8398 26.895 24.8398 27.345ZM21.7648 27.345C21.7648 26.505 21.9198 25.725 22.2298 25.005C22.5398 24.275 22.9698 23.64 23.5198 23.1C24.0698 22.56 24.7248 22.14 25.4848 21.84C26.2548 21.53 27.0998 21.375 28.0198 21.375C28.9298 21.375 29.7698 21.53 30.5398 21.84C31.3098 22.14 31.9698 22.56 32.5198 23.1C33.0798 23.64 33.5148 24.275 33.8248 25.005C34.1348 25.725 34.2898 26.505 34.2898 27.345C34.2898 28.185 34.1348 28.97 33.8248 29.7C33.5148 30.42 33.0798 31.05 32.5198 31.59C31.9698 32.13 31.3098 32.555 30.5398 32.865C29.7698 33.165 28.9298 33.315 28.0198 33.315C27.0998 33.315 26.2548 33.165 25.4848 32.865C24.7248 32.555 24.0698 32.13 23.5198 31.59C22.9698 31.05 22.5398 30.42 22.2298 29.7C21.9198 28.97 21.7648 28.185 21.7648 27.345ZM40.3197 24.18V33H37.3797V24.18H34.9647V21.69H42.7347V24.18H40.3197ZM46.9824 30.72H47.6274C48.3674 30.72 48.8974 30.625 49.2174 30.435C49.5374 30.245 49.6974 29.94 49.6974 29.52C49.6974 29.1 49.5374 28.795 49.2174 28.605C48.8974 28.415 48.3674 28.32 47.6274 28.32H46.9824V30.72ZM46.9824 26.13H47.5224C48.4424 26.13 48.9024 25.765 48.9024 25.035C48.9024 24.305 48.4424 23.94 47.5224 23.94H46.9824V26.13ZM44.0424 21.69H48.4224C49.4624 21.69 50.2524 21.94 50.7924 22.44C51.3324 22.94 51.6024 23.66 51.6024 24.6C51.6024 25.17 51.4974 25.645 51.2874 26.025C51.0874 26.395 50.7774 26.71 50.3574 26.97C50.7774 27.05 51.1324 27.175 51.4224 27.345C51.7224 27.505 51.9624 27.705 52.1424 27.945C52.3324 28.185 52.4674 28.455 52.5474 28.755C52.6274 29.055 52.6674 29.375 52.6674 29.715C52.6674 30.245 52.5724 30.715 52.3824 31.125C52.2024 31.535 51.9424 31.88 51.6024 32.16C51.2724 32.44 50.8674 32.65 50.3874 32.79C49.9074 32.93 49.3674 33 48.7674 33H44.0424V21.69ZM60.417 28.8L59.097 25.035L57.777 28.8H60.417ZM61.197 31.035H56.997L56.322 33H53.187L57.492 21.69H60.702L65.007 33H61.872L61.197 31.035ZM69.2334 21.69V30.51H72.7584V33H66.2934V21.69H69.2334ZM77.2168 21.69V30.51H80.7418V33H74.2768V21.69H77.2168Z" fill="#F4F4F4"/>
</svg>
